# xmcd
#
# Track frame offsets: 
#        150
#        18997
#        36766
#        67261
#        85103
#        121056
#        138662
#        166742
#
# Disc length: 2558 seconds
#
# Revision: 7
# Processed by: cddbd v1.5.2PL0 Copyright (c) Steve Scherf et al.
# Submitted via: ExactAudioCopy v0.99pb4
#
DISCID=6309fc08
DTITLE=George Benson - Live From Montreux [CD1 of 2)
DYEAR=2007
DGENRE=Jazz
TTITLE0=Feel Like Making Love
TTITLE1=Off Broadway
TTITLE2=Weekend In L.A.
TTITLE3=Lady Love Me (One More Time)
TTITLE4=Love Ballad
TTITLE5=Beyond The Sea
TTITLE6=Affirmation
TTITLE7=My Latin Brother
EXTD=YEAR: 2007
EXTT0=
EXTT1=
EXTT2=
EXTT3=
EXTT4=
EXTT5=
EXTT6=
EXTT7=
PLAYORDER=
